<svg xmlns="http://www.w3.org/2000/svg" xmlns:xlink="http://www.w3.org/1999/xlink" width="500" zoomAndPan="magnify" viewBox="0 0 375 374.999991" height="500" preserveAspectRatio="xMidYMid meet" version="1.0"><defs><g/></defs><rect x="-37.5" width="450" fill="#ffffff" y="-37.499999" height="449.999989" fill-opacity="1"/><rect x="-37.5" width="450" fill="#ffffff" y="-37.499999" height="449.999989" fill-opacity="1"/><path fill="#e50914" d="M 65.691406 131.382812 L 309.296875 131.382812 C 315.976562 131.382812 322.386719 134.035156 327.109375 138.761719 C 331.835938 143.484375 334.488281 149.894531 334.488281 156.574219 L 334.488281 206.964844 C 334.488281 213.648438 331.835938 220.054688 327.109375 224.78125 C 322.386719 229.503906 315.976562 232.160156 309.296875 232.160156 L 65.691406 232.160156 C 51.777344 232.160156 40.496094 220.878906 40.496094 206.964844 L 40.496094 156.574219 C 40.496094 142.660156 51.777344 131.382812 65.691406 131.382812 Z M 65.691406 131.382812 " fill-opacity="1" fill-rule="nonzero"/><g fill="#ffffff" fill-opacity="1"><g transform="translate(69.274212, 202.770486)"><g><path d="M 3.8125 -43.8125 C 4.820312 -44.53125 5.613281 -44.890625 6.1875 -44.890625 C 6.757812 -44.890625 7.453125 -44.597656 8.265625 -44.015625 C 9.085938 -43.441406 9.59375 -42.769531 9.78125 -42 C 9.976562 -41.238281 10.097656 -39.203125 10.140625 -35.890625 C 10.191406 -32.585938 10.40625 -28.15625 10.78125 -22.59375 C 11.164062 -17.03125 11.648438 -13.117188 12.234375 -10.859375 C 24.222656 -10.523438 31.582031 -10.117188 34.3125 -9.640625 C 35.988281 -9.253906 36.921875 -8.148438 37.109375 -6.328125 C 37.304688 -4.503906 36.613281 -3.257812 35.03125 -2.59375 C 33.925781 -2.113281 29.582031 -2.0625 22 -2.4375 C 14.425781 -2.820312 10.019531 -3.304688 8.78125 -3.890625 C 6.570312 -4.992188 5.082031 -7.222656 4.3125 -10.578125 C 3.550781 -13.929688 2.976562 -20.523438 2.59375 -30.359375 L 2.15625 -42.65625 Z M 3.8125 -43.8125 "/></g></g></g><g fill="#ffffff" fill-opacity="1"><g transform="translate(108.547825, 202.770486)"><g><path d="M 15.609375 -8.625 C 16.285156 -8.625 17.269531 -9.628906 18.5625 -11.640625 C 19.851562 -13.660156 20.878906 -15.820312 21.640625 -18.125 C 22.410156 -20.425781 22.820312 -22.007812 22.875 -22.875 C 22.875 -23.738281 22.488281 -24.503906 21.71875 -25.171875 C 19.5625 -26.234375 17.617188 -26.332031 15.890625 -25.46875 C 14.171875 -24.601562 12.78125 -23.113281 11.71875 -21 C 10.664062 -18.894531 10.304688 -16.8125 10.640625 -14.75 C 10.878906 -13.550781 11.570312 -12.226562 12.71875 -10.78125 C 13.875 -9.34375 14.835938 -8.625 15.609375 -8.625 Z M 34.75 -15.25 C 36.1875 -8.34375 36.90625 -4.171875 36.90625 -2.734375 C 36.90625 -1.296875 36.59375 -0.289062 35.96875 0.28125 C 35.34375 0.863281 34.332031 1.15625 32.9375 1.15625 C 31.550781 1.15625 30.59375 0.769531 30.0625 0 C 29.539062 -0.769531 28.988281 -2.640625 28.40625 -5.609375 C 27.832031 -8.585938 27.425781 -10.078125 27.1875 -10.078125 C 27.050781 -10.078125 26.285156 -9.019531 24.890625 -6.90625 C 22.441406 -2.96875 19.25 -1 15.3125 -1 C 11.382812 -1 8.101562 -3.015625 5.46875 -7.046875 C 3.5 -10.117188 2.414062 -12.898438 2.21875 -15.390625 C 2.03125 -17.890625 2.5625 -20.429688 3.8125 -23.015625 C 5.0625 -25.609375 6.664062 -27.890625 8.625 -29.859375 C 10.59375 -31.867188 12.347656 -33.113281 13.890625 -33.59375 C 17.960938 -34.988281 22.203125 -34.34375 26.609375 -31.65625 C 29.203125 -30.070312 30.835938 -28.65625 31.515625 -27.40625 C 32.179688 -26.207031 33.257812 -22.15625 34.75 -15.25 Z M 34.75 -15.25 "/></g></g></g><g fill="#ffffff" fill-opacity="1"><g transform="translate(147.60565, 202.770486)"><g><path d="M 13.890625 -8.625 C 15.898438 -8.625 18.75 -9.992188 22.4375 -12.734375 C 23.539062 -13.546875 24.1875 -14.210938 24.375 -14.734375 C 24.570312 -15.265625 24.597656 -16.394531 24.453125 -18.125 C 24.265625 -19.851562 24.023438 -21.097656 23.734375 -21.859375 C 23.453125 -22.628906 22.734375 -23.492188 21.578125 -24.453125 C 20.429688 -25.515625 19.050781 -26.09375 17.4375 -26.1875 C 15.832031 -26.28125 14.488281 -25.847656 13.40625 -24.890625 C 12.332031 -23.929688 11.722656 -23.066406 11.578125 -22.296875 C 11.429688 -21.535156 11.476562 -19.378906 11.71875 -15.828125 C 11.957031 -12.273438 12.171875 -10.1875 12.359375 -9.5625 C 12.554688 -8.9375 13.066406 -8.625 13.890625 -8.625 Z M 9.921875 -33.453125 C 9.921875 -33.304688 9.96875 -33.1875 10.0625 -33.09375 C 10.164062 -33 10.3125 -32.953125 10.5 -32.953125 C 10.695312 -32.953125 10.960938 -33 11.296875 -33.09375 C 11.628906 -33.1875 12.320312 -33.425781 13.375 -33.8125 C 14.4375 -34.195312 15.613281 -34.410156 16.90625 -34.453125 C 18.195312 -34.503906 19.847656 -34.144531 21.859375 -33.375 C 23.878906 -32.613281 25.546875 -31.765625 26.859375 -30.828125 C 28.179688 -29.890625 29.414062 -28.222656 30.5625 -25.828125 C 31.71875 -23.429688 32.425781 -20.875 32.6875 -18.15625 C 32.957031 -15.445312 32.5625 -13.035156 31.5 -10.921875 C 30.445312 -8.816406 28.335938 -6.753906 25.171875 -4.734375 C 22.015625 -2.722656 18.035156 -1.144531 13.234375 0 L 13.375 4.890625 C 13.570312 7.003906 13.617188 8.632812 13.515625 9.78125 C 13.421875 10.9375 13.253906 11.65625 13.015625 11.9375 C 12.878906 12.226562 12.378906 12.566406 11.515625 12.953125 C 10.648438 13.335938 9.59375 13.375 8.34375 13.0625 C 7.09375 12.75 6.375 12.179688 6.1875 11.359375 C 5.800781 9.878906 5.320312 5.4375 4.75 -1.96875 C 4.175781 -9.382812 3.597656 -15.007812 3.015625 -18.84375 C 2.535156 -22.6875 2.25 -27.390625 2.15625 -32.953125 C 2.0625 -33.953125 2.328125 -34.8125 2.953125 -35.53125 C 3.765625 -36.59375 5.128906 -36.832031 7.046875 -36.25 C 8.960938 -35.675781 9.921875 -34.742188 9.921875 -33.453125 Z M 9.921875 -33.453125 "/></g></g></g><g fill="#ffffff" fill-opacity="1"><g transform="translate(182.56348, 202.770486)"><g><path d="M 15.609375 -8.625 C 16.285156 -8.625 17.269531 -9.628906 18.5625 -11.640625 C 19.851562 -13.660156 20.878906 -15.820312 21.640625 -18.125 C 22.410156 -20.425781 22.820312 -22.007812 22.875 -22.875 C 22.875 -23.738281 22.488281 -24.503906 21.71875 -25.171875 C 19.5625 -26.234375 17.617188 -26.332031 15.890625 -25.46875 C 14.171875 -24.601562 12.78125 -23.113281 11.71875 -21 C 10.664062 -18.894531 10.304688 -16.8125 10.640625 -14.75 C 10.878906 -13.550781 11.570312 -12.226562 12.71875 -10.78125 C 13.875 -9.34375 14.835938 -8.625 15.609375 -8.625 Z M 34.75 -15.25 C 36.1875 -8.34375 36.90625 -4.171875 36.90625 -2.734375 C 36.90625 -1.296875 36.59375 -0.289062 35.96875 0.28125 C 35.34375 0.863281 34.332031 1.15625 32.9375 1.15625 C 31.550781 1.15625 30.59375 0.769531 30.0625 0 C 29.539062 -0.769531 28.988281 -2.640625 28.40625 -5.609375 C 27.832031 -8.585938 27.425781 -10.078125 27.1875 -10.078125 C 27.050781 -10.078125 26.285156 -9.019531 24.890625 -6.90625 C 22.441406 -2.96875 19.25 -1 15.3125 -1 C 11.382812 -1 8.101562 -3.015625 5.46875 -7.046875 C 3.5 -10.117188 2.414062 -12.898438 2.21875 -15.390625 C 2.03125 -17.890625 2.5625 -20.429688 3.8125 -23.015625 C 5.0625 -25.609375 6.664062 -27.890625 8.625 -29.859375 C 10.59375 -31.867188 12.347656 -33.113281 13.890625 -33.59375 C 17.960938 -34.988281 22.203125 -34.34375 26.609375 -31.65625 C 29.203125 -30.070312 30.835938 -28.65625 31.515625 -27.40625 C 32.179688 -26.207031 33.257812 -22.15625 34.75 -15.25 Z M 34.75 -15.25 "/></g></g></g><g fill="#ffffff" fill-opacity="1"><g transform="translate(221.621305, 202.770486)"><g><path d="M 32.65625 0.9375 C 32.65625 3.382812 31.3125 4.609375 28.625 4.609375 C 27.8125 4.410156 26.445312 3.425781 24.53125 1.65625 C 22.613281 -0.113281 20.144531 -2.535156 17.125 -5.609375 C 14.101562 -8.679688 12.539062 -10.289062 12.4375 -10.4375 L 12.4375 -6.625 C 12.4375 -3.695312 11.71875 -1.703125 10.28125 -0.640625 C 8.84375 0.410156 7.3125 0.0507812 5.6875 -1.71875 C 5.101562 -2.300781 4.71875 -3.550781 4.53125 -5.46875 C 4.34375 -7.382812 4.128906 -13.28125 3.890625 -23.15625 C 3.597656 -33.039062 3.1875 -39.46875 2.65625 -42.4375 C 2.175781 -45.414062 2.03125 -47.382812 2.21875 -48.34375 C 2.414062 -49.300781 2.992188 -49.992188 3.953125 -50.421875 C 4.910156 -50.859375 5.84375 -50.976562 6.75 -50.78125 C 7.664062 -50.59375 8.410156 -50.160156 8.984375 -49.484375 C 9.566406 -48.816406 10.144531 -46.613281 10.71875 -42.875 C 11.382812 -39.132812 11.71875 -35.828125 11.71875 -32.953125 L 11.71875 -27.1875 C 19.539062 -35.4375 24.050781 -39.96875 25.25 -40.78125 C 25.632812 -40.78125 26.351562 -40.492188 27.40625 -39.921875 C 28.457031 -39.347656 29.101562 -38.847656 29.34375 -38.421875 C 30.0625 -37.359375 29.988281 -36.109375 29.125 -34.671875 C 28.269531 -33.234375 26.09375 -30.691406 22.59375 -27.046875 L 15.328125 -19.421875 L 24.03125 -10.4375 C 27.675781 -6.550781 30.023438 -3.9375 31.078125 -2.59375 C 32.128906 -1.25 32.65625 -0.0703125 32.65625 0.9375 Z M 32.65625 0.9375 "/></g></g></g><g fill="#ffffff" fill-opacity="1"><g transform="translate(256.435271, 202.770486)"><g><path d="M 11.21875 -6.75 C 10.695312 -5.695312 9.710938 -5.171875 8.265625 -5.171875 C 6.828125 -5.171875 5.820312 -5.65625 5.25 -6.625 C 4.71875 -7.582031 4.066406 -9.878906 3.296875 -13.515625 C 2.535156 -17.160156 2.15625 -19.992188 2.15625 -22.015625 C 2.15625 -23.929688 2.515625 -25.320312 3.234375 -26.1875 C 3.953125 -27.050781 4.984375 -27.484375 6.328125 -27.484375 C 7.671875 -27.484375 8.582031 -27.144531 9.0625 -26.46875 C 9.539062 -25.800781 9.972656 -24.507812 10.359375 -22.59375 C 10.691406 -20.664062 11.125 -17.160156 11.65625 -12.078125 C 11.894531 -9.585938 11.75 -7.8125 11.21875 -6.75 Z M 10.5 -37.265625 C 10.5 -36.210938 10.066406 -35.253906 9.203125 -34.390625 C 8.335938 -33.523438 7.40625 -33.09375 6.40625 -33.09375 C 4.863281 -33.09375 3.804688 -33.976562 3.234375 -35.75 C 2.710938 -37.53125 2.976562 -39.039062 4.03125 -40.28125 C 5.082031 -41.53125 6.421875 -41.769531 8.046875 -41 C 9.679688 -40.238281 10.5 -38.992188 10.5 -37.265625 Z M 10.5 -37.265625 "/></g></g></g><g fill="#ffffff" fill-opacity="1"><g transform="translate(270.389647, 202.770486)"><g><path d="M 29.5625 -4.453125 C 28.269531 -4.453125 27.285156 -5.078125 26.609375 -6.328125 C 25.941406 -7.578125 25.273438 -9.878906 24.609375 -13.234375 C 23.546875 -19.179688 22.273438 -22.585938 20.796875 -23.453125 C 20.453125 -23.640625 20.113281 -23.613281 19.78125 -23.375 C 18.582031 -22.414062 17.265625 -17.882812 15.828125 -9.78125 C 15.347656 -7.144531 14.628906 -5.140625 13.671875 -3.765625 C 12.710938 -2.398438 11.691406 -1.8125 10.609375 -2 C 9.535156 -2.195312 8.925781 -2.296875 8.78125 -2.296875 C 8.195312 -2.296875 7.664062 -3.160156 7.1875 -4.890625 C 6.707031 -6.617188 6.179688 -9.90625 5.609375 -14.75 C 5.035156 -19.59375 4.242188 -23.140625 3.234375 -25.390625 C 1.554688 -29.273438 1.796875 -31.742188 3.953125 -32.796875 C 6.253906 -34.003906 8.34375 -32.972656 10.21875 -29.703125 L 11.875 -26.765625 L 14.09375 -29.140625 C 15.25 -30.429688 16.640625 -31.363281 18.265625 -31.9375 C 19.898438 -32.507812 21.390625 -32.582031 22.734375 -32.15625 C 24.941406 -31.488281 26.859375 -29.847656 28.484375 -27.234375 C 30.117188 -24.617188 31.363281 -21.101562 32.21875 -16.6875 C 33.082031 -12.28125 33.347656 -9.140625 33.015625 -7.265625 C 32.628906 -5.390625 31.476562 -4.453125 29.5625 -4.453125 Z M 29.5625 -4.453125 "/></g></g></g><path fill="#e50914" d="M 262.464844 213.707031 L 306.949219 213.707031 C 311.585938 213.707031 315.347656 217.46875 315.347656 222.105469 L 315.347656 238.90625 C 315.347656 243.546875 311.585938 247.308594 306.949219 247.308594 L 262.464844 247.308594 C 257.828125 247.308594 254.066406 243.546875 254.066406 238.90625 L 254.066406 222.105469 C 254.066406 217.46875 257.828125 213.707031 262.464844 213.707031 Z M 262.464844 213.707031 " fill-opacity="1" fill-rule="nonzero"/><g fill="#ffffff" fill-opacity="1"><g transform="translate(263.666003, 237.256948)"><g><path d="M 0.71875 -1.203125 C 0.71875 -1.347656 0.816406 -1.554688 1.015625 -1.828125 C 1.328125 -2.335938 1.753906 -2.523438 2.296875 -2.390625 C 2.847656 -2.265625 3.195312 -1.90625 3.34375 -1.3125 C 3.445312 -0.882812 3.347656 -0.523438 3.046875 -0.234375 C 2.742188 0.046875 2.375 0.15625 1.9375 0.09375 C 1.507812 0.03125 1.195312 -0.15625 1 -0.46875 C 0.8125 -0.789062 0.71875 -1.035156 0.71875 -1.203125 Z M 0.71875 -1.203125 "/></g></g></g><g fill="#ffffff" fill-opacity="1"><g transform="translate(267.770014, 237.256948)"><g><path d="M 10.296875 -2.921875 C 10.296875 -2.460938 10.054688 -2.03125 9.578125 -1.625 C 8.484375 -0.726562 7.34375 -0.1875 6.15625 0 C 4.976562 0.1875 3.925781 -0.00390625 3 -0.578125 C 2.070312 -1.148438 1.429688 -2.019531 1.078125 -3.1875 C 0.597656 -4.738281 0.597656 -6.367188 1.078125 -8.078125 C 1.554688 -9.796875 2.3125 -10.921875 3.34375 -11.453125 C 4.007812 -11.816406 5 -11.835938 6.3125 -11.515625 C 7.625 -11.203125 8.578125 -10.707031 9.171875 -10.03125 C 9.765625 -9.363281 10.113281 -8.675781 10.21875 -7.96875 C 10.332031 -7.257812 10.171875 -6.769531 9.734375 -6.5 C 9.304688 -6.226562 8.898438 -6.171875 8.515625 -6.328125 C 8.128906 -6.492188 7.820312 -6.863281 7.59375 -7.4375 C 7.375 -8.007812 6.875 -8.472656 6.09375 -8.828125 C 5.3125 -9.171875 4.742188 -9.171875 4.390625 -8.828125 C 3.878906 -8.335938 3.59375 -7.382812 3.53125 -5.96875 C 3.46875 -4.5625 3.660156 -3.613281 4.109375 -3.125 C 4.421875 -2.738281 4.910156 -2.59375 5.578125 -2.6875 C 6.253906 -2.78125 6.925781 -3.050781 7.59375 -3.5 C 8.269531 -3.945312 8.6875 -4.1875 8.84375 -4.21875 C 9.007812 -4.25 9.289062 -4.148438 9.6875 -3.921875 C 10.09375 -3.703125 10.296875 -3.367188 10.296875 -2.921875 Z M 10.296875 -2.921875 "/></g></g></g><g fill="#ffffff" fill-opacity="1"><g transform="translate(278.786039, 237.256948)"><g><path d="M 6 -7.796875 C 5.53125 -8.265625 5.054688 -8.320312 4.578125 -7.96875 C 4.097656 -7.613281 3.710938 -6.90625 3.421875 -5.84375 C 3.140625 -4.789062 3.207031 -3.816406 3.625 -2.921875 C 4.039062 -2.023438 4.59375 -1.664062 5.28125 -1.84375 C 5.707031 -1.957031 6.015625 -2.109375 6.203125 -2.296875 C 6.398438 -2.492188 6.578125 -2.878906 6.734375 -3.453125 C 6.898438 -4.023438 6.898438 -4.804688 6.734375 -5.796875 C 6.578125 -6.796875 6.332031 -7.460938 6 -7.796875 Z M 0.734375 -5.328125 C 0.804688 -6.578125 1.128906 -7.710938 1.703125 -8.734375 C 2.273438 -9.753906 3.015625 -10.445312 3.921875 -10.8125 C 4.835938 -11.1875 6.175781 -10.894531 7.9375 -9.9375 C 8.875 -9.425781 9.46875 -8.992188 9.71875 -8.640625 C 9.976562 -8.285156 9.992188 -7.882812 9.765625 -7.4375 C 9.546875 -6.988281 9.453125 -6.125 9.484375 -4.84375 C 9.578125 -1.800781 8.492188 0.046875 6.234375 0.703125 C 4.546875 1.191406 3.09375 0.742188 1.875 -0.640625 C 1.363281 -1.234375 1.023438 -1.851562 0.859375 -2.5 C 0.710938 -3.132812 0.671875 -4.078125 0.734375 -5.328125 Z M 0.734375 -5.328125 "/></g></g></g><g fill="#ffffff" fill-opacity="1"><g transform="translate(289.442056, 237.256948)"><g><path d="M 9.828125 -1.109375 C 9.671875 -0.722656 9.320312 -0.535156 8.78125 -0.546875 C 8.238281 -0.566406 7.882812 -0.75 7.71875 -1.09375 C 7.5625 -1.445312 7.382812 -2.21875 7.1875 -3.40625 C 7 -4.59375 6.8125 -5.566406 6.625 -6.328125 C 6.4375 -7.097656 6.226562 -7.675781 6 -8.0625 C 5.769531 -8.445312 5.585938 -8.613281 5.453125 -8.5625 C 4.742188 -8.289062 4.316406 -6.6875 4.171875 -3.75 C 4.109375 -2.4375 4.046875 -1.585938 3.984375 -1.203125 C 3.921875 -0.816406 3.789062 -0.550781 3.59375 -0.40625 C 2.957031 0.0390625 2.382812 0.0078125 1.875 -0.5 C 1.675781 -0.675781 1.546875 -1.003906 1.484375 -1.484375 C 1.421875 -1.960938 1.34375 -2.90625 1.25 -4.3125 C 1.164062 -6.59375 1.035156 -8.007812 0.859375 -8.5625 C 0.523438 -9.75 0.742188 -10.503906 1.515625 -10.828125 C 1.941406 -10.972656 2.300781 -10.945312 2.59375 -10.75 C 2.882812 -10.5625 3.09375 -10.46875 3.21875 -10.46875 C 3.34375 -10.46875 3.617188 -10.601562 4.046875 -10.875 C 4.484375 -11.144531 4.988281 -11.28125 5.5625 -11.28125 C 6.144531 -11.28125 6.546875 -11.226562 6.765625 -11.125 C 6.992188 -11.03125 7.335938 -10.722656 7.796875 -10.203125 C 8.273438 -9.691406 8.53125 -9.488281 8.5625 -9.59375 C 8.550781 -9.820312 8.785156 -10.128906 9.265625 -10.515625 C 9.742188 -10.898438 10.164062 -11.144531 10.53125 -11.25 C 11.875 -11.6875 12.953125 -11.375 13.765625 -10.3125 C 14.585938 -9.257812 15.132812 -7.492188 15.40625 -5.015625 C 15.53125 -3.816406 15.578125 -3.097656 15.546875 -2.859375 C 15.515625 -2.617188 15.375 -2.382812 15.125 -2.15625 C 14.476562 -1.632812 13.960938 -1.5625 13.578125 -1.9375 C 13.203125 -2.320312 12.925781 -3.1875 12.75 -4.53125 C 12.394531 -7.382812 11.9375 -8.757812 11.375 -8.65625 C 11.007812 -8.5625 10.648438 -7.925781 10.296875 -6.75 C 10.085938 -6.0625 10 -5.046875 10.03125 -3.703125 C 10.0625 -2.359375 9.992188 -1.492188 9.828125 -1.109375 Z M 9.828125 -1.109375 "/></g></g></g></svg>